<?xml version="1.0" encoding="utf-8"?>
<!-- Svg Vector Icons : http://www.onlinewebfonts.com/icon -->
<!DOCTYPE svg PUBLIC "-//W3C//DTD SVG 1.1//EN" "http://www.w3.org/Graphics/SVG/1.1/DTD/svg11.dtd">
<svg version="1.1" xmlns="http://www.w3.org/2000/svg" xmlns:xlink="http://www.w3.org/1999/xlink" x="0px" y="0px" viewBox="0 0 1000 1000" enable-background="new 0 0 1000 1000" xml:space="preserve">
<metadata> Svg Vector Icons : http://www.onlinewebfonts.com/icon </metadata>
<g><g transform="translate(0.000000,511.000000) scale(0.100000,-0.100000)"><path d="M4913.7,4844c-30.7-19.2-1106.3-1087.1-2389-2371.7C-88.6-146.9,103.1,66,103.1-229.3c0-126.6,7.7-172.6,49.9-262.7c151.5-324,542.6-462.1,862.8-301c57.5,26.8,686.4,642.3,2034.3,1988.3L5000,3145.2l1951.8-1949.9C8305.5-156.5,8926.7-766.2,8984.2-793c320.2-161.1,711.3-23,862.8,301c42.2,90.1,49.9,136.1,49.9,262.7c0,295.3,191.7,80.5-2431.2,2711.1c-1380.5,1382.4-2366,2356.4-2402.4,2371.7C4984.7,4888.1,4982.7,4888.1,4913.7,4844z"/><path d="M3086.5,733.2l-1902-1902v-1691.1V-4551l46-53.7l46-53.7H5000h3723.5l46,53.7l46,53.7v1691.1v1691.1L6911.6,735.1c-1045,1045-1905.8,1902-1911.6,1902S4133.4,1780.1,3086.5,733.2z M6763.9-628.1c0-3.8-385.4-329.8-855.1-724.8c-680.6-569.4-866.6-717.1-908.8-717.1c-44.1,0-230.1,147.6-908.8,717.1c-469.8,395-855.1,720.9-855.1,724.8c0,1.9,793.8,5.8,1763.9,5.8C5970.2-622.4,6763.9-626.2,6763.9-628.1z M3857.3-1402.7c274.2-230.1,500.4-425.6,502.3-437.1c3.8-15.4-935.7-816.8-1221.3-1041.1l-55.6-44.1v1085.2v1085.2l140-115C3297.4-933,3585-1172.6,3857.3-1402.7z M6913.5-2374.8l-5.8-548.3L6275-2394c-347,293.3-632.7,540.7-632.7,550.3c0,11.5,285.7,258.8,632.7,552.2l632.7,531.1l5.8-533C6915.4-1586.8,6915.4-2073.8,6913.5-2374.8z M4787.2-2179.2c93.9-74.8,113.1-82.4,212.8-82.4c115,0,141.9,15.3,393.1,230.1l78.6,65.2l646.1-540.7l646.1-540.7l-882-5.8c-485.1-1.9-1278.9-1.9-1763.9,0l-882,5.8l646.1,540.7l646.1,542.6l76.7-67.1C4649.1-2068,4729.7-2135.1,4787.2-2179.2z"/></g></g>
</svg>